<?xml version="1.0" encoding="UTF-8"?>
<!DOCTYPE svg PUBLIC "-//W3C//DTD SVG 1.1//EN" "http://www.w3.org/Graphics/SVG/1.1/DTD/svg11.dtd">
<!-- Creator: CorelDRAW -->
<svg xmlns="http://www.w3.org/2000/svg" xml:space="preserve" width="2048px" height="2048px" style="shape-rendering:geometricPrecision; text-rendering:geometricPrecision; image-rendering:optimizeQuality; fill-rule:evenodd; clip-rule:evenodd"
viewBox="0 0 2048 2048"
 xmlns:xlink="http://www.w3.org/1999/xlink">
 <defs>
  <style type="text/css">
   <![CDATA[
    .fil1 {fill:none}
    .fil0 {fill:#424242}
   ]]>
  </style>
 </defs>
 <g id="Layer_x0020_1">
  <metadata id="CorelCorpID_0Corel-Layer"/>
  <g id="_410367720">
   <path id="_410375784" class="fil0" d="M1418.94 329.058c27.9437,2.5937 53.5052,16.0772 71.426,37.6677 17.9173,21.5858 26.4638,49.1989 23.8689,77.1355 -2.5937,27.9437 -16.0772,53.5052 -37.6677,71.426 -21.5847,17.9173 -49.1989,26.4638 -77.1355,23.8701 -27.9437,-2.59488 -53.5052,-16.0784 -71.426,-37.6677 -17.9173,-21.5858 -26.4638,-49.2 -23.8689,-77.1367 2.5937,-27.9425 16.0772,-53.5052 37.6677,-71.426 21.5847,-17.9173 49.1989,-26.4638 77.1355,-23.8689z"/>
   <path id="_410374832" class="fil0" d="M1621.61 1155.14l114.05 394.042c7.01693,24.2433 11.074,52.5638 3.20788,77.1131 -6.05197,18.8823 -18.8953,33.9414 -37.8036,40.6866 -18.0036,6.4193 -37.9772,3.94016 -54.8363,-4.60158 -18.4406,-9.34371 -32.478,-25.3736 -39.8197,-44.6528l-78.0048 -204.826 8.45316 -30.404c6.7063,-24.1229 17.3988,-47.7815 27.202,-70.7953 13.3087,-31.2331 26.7484,-62.4225 38.2985,-94.3631 7.12441,-19.7043 13.9465,-40.6926 19.2532,-62.1993z"/>
   <path id="_410372984" class="fil0" d="M1519.4 619.518l251.14 221.792c28.7658,25.402 27.991,70.3004 1.60512,97.2828 -26.4792,27.0744 -67.8827,25.5933 -96.0036,1.80473l-119.093 -100.739 -36.4134 -213.946c-0.355512,-2.08937 -0.77126,-4.15394 -1.23543,-6.19489z"/>
   <path id="_410372200" class="fil0" d="M1364.16 855.825c-33.3284,18.2362 -65.5796,36.9922 -96.3579,61.043 -8.41536,6.57638 -24.8894,12.7996 -34.9288,16.7268 -17.5477,6.86339 -35.413,13.1303 -53.2453,19.2154 -27.3591,9.33544 -55.2815,18.6331 -83.0398,26.7189 -20.0941,5.85355 -40.6205,3.25512 -57.2233,-9.96024 -15.9425,-12.691 -24.9567,-32.7296 -26.3492,-52.8225 -2.4378,-35.1721 17.9563,-65.1426 52.8662,-73.0016l119.984 -47.6918c28.4977,-22.3075 56.5796,-45.2788 84.0556,-68.8252 18.1299,-15.5386 36.0496,-31.3796 53.4626,-47.7154 6.85867,-6.43465 13.7126,-12.985 20.4284,-19.6784 19.4906,44.3894 28.8662,104.614 21.3378,186.097 -0.31063,3.3626 -0.657875,6.60237 -0.989765,9.8941zm-7.54961 -209.137c3.09685,-3.28937 6.14174,-6.61536 9.12166,-9.97914 20.3386,-22.9595 38.3717,-45.9851 70.7008,-51.4843 52.8662,-8.99292 103.029,26.5878 112.025,79.4505l64.8461 381.005c9.21379,54.1335 -7.80945,115.466 -26.1425,166.166 -11.4532,31.6736 -24.7725,62.5548 -37.9666,93.5245 -9.89765,23.2299 -21.15,48.502 -27.9059,72.8008l-77.5312 278.867c-1.85079,17.811 -10.4398,34.1433 -24.1134,45.7784 -14.0776,11.9752 -32.204,17.8335 -50.6292,16.3559 -38.0634,-3.05315 -70.7965,-37.4303 -63.5599,-76.5438l54.4748 -294.391c0.022441,-5.44843 1.27441,-12.3378 1.99725,-16.8343 1.8,-11.1992 3.8941,-22.3855 6.01063,-33.5315 6.0626,-31.9335 12.5705,-63.8067 19.1055,-95.6469 5.98819,-29.1756 12.0567,-58.3323 18.1051,-87.4938 3.41339,-16.4658 7.02166,-33.039 10.1339,-49.5733l-34.2083 -218.398c8.07402,-88.2331 -2.6504,-152.883 -24.4642,-200.072z"/>
   <path id="_410371976" class="fil0" d="M479.687 336.94c57.3792,-10.0488 112.071,28.3406 122.12,85.7198 10.0488,57.378 -28.3418,112.07 -85.7209,122.119 -57.378,10.0488 -112.07,-28.3418 -122.119,-85.7186 -10.0488,-57.3804 28.3418,-112.071 85.7198,-122.12z"/>
   <path id="_410369176" class="fil0" d="M455.291 1418.62l-60.8894 209.31c-5.7626,19.8071 -18.4618,36.9177 -36.0886,47.7189 -16.1173,9.87639 -35.8205,13.9583 -54.2859,9.00946 -19.3925,-5.19449 -33.4075,-19.1681 -40.963,-37.5024 -9.82205,-23.8347 -8.06221,-52.3902 -3.02481,-77.1201l81.7359 -401.243c7.46575,23.7969 16.9914,46.8922 26.7685,68.3375 14.0894,30.9036 30.0024,60.9071 45.7866,90.9662 11.6303,22.1457 24.1937,44.8654 32.8252,68.3682l8.13544 22.1551z"/>
   <path id="_410369624" class="fil0" d="M559.217 849.787l-16.4823 220.558c4.43504,16.2284 9.36969,32.4567 14.1012,48.5918 8.37993,28.5803 16.7823,57.1536 25.1055,85.7493 9.08268,31.2095 18.1406,62.4532 26.7603,93.7938 3.00945,10.9382 5.99764,21.9177 8.69764,32.9386 1.08189,4.42205 2.8878,11.1874 3.34843,16.6158l78.0508 289.037c10.3476,38.3221 -19.6382,75.3331 -57.176,81.4205 -37.3713,6.0626 -72.6201,-18.8799 -79.5131,-55.9016l-99.7808 -271.7c-8.6941,-23.6752 -21.9484,-47.9552 -33.6874,-70.3111 -15.6508,-29.804 -31.4185,-59.5099 -45.3898,-90.156 -22.363,-49.0559 -44.2796,-108.815 -39.4642,-163.515l33.8906 -384.994c2.26536,-25.7386 14.5713,-49.337 34.3725,-65.9292 19.7882,-16.5803 45.1559,-24.5658 70.878,-22.304 32.6681,2.87362 52.5,24.3697 74.6245,45.6142 14.4083,13.8354 30.0449,26.804 45.6638,39.2457 18.6756,14.8784 37.8142,29.2217 57.1371,43.2461 29.2878,21.2528 59.1319,41.8831 89.3363,61.8178l123.438 37.8532c21.9603,3.1004 40.2863,15.0921 50.537,35.0776 5.2878,10.3063 7.91575,21.861 8.04922,33.4217 0.510237,44.0138 -32.863,78.6449 -78.2339,69.3225 -28.3205,-5.8193 -56.902,-12.835 -84.9249,-19.9311 -18.2658,-4.62638 -36.5776,-9.43229 -54.6225,-14.8571 -10.324,-3.10394 -27.2457,-7.97835 -36.1642,-13.8543 -38.1036,-25.102 -77.6245,-42.8398 -118.552,-60.8504z"/>
  </g>
 </g>
 <rect class="fil1" width="2048" height="2048"/>
</svg>
